<svg width="1280" height="520" viewBox="0 0 1280 520" fill="none" xmlns="http://www.w3.org/2000/svg">
  <defs>
    <linearGradient id="bg" x1="0" y1="0" x2="1280" y2="520" gradientUnits="userSpaceOnUse">
      <stop stop-color="#020617"/>
      <stop offset="0.5" stop-color="#082F49"/>
      <stop offset="1" stop-color="#052E16"/>
    </linearGradient>
    <linearGradient id="line" x1="120" y1="180" x2="1160" y2="180" gradientUnits="userSpaceOnUse">
      <stop stop-color="#22C55E"/>
      <stop offset="0.5" stop-color="#38BDF8"/>
      <stop offset="1" stop-color="#22C55E"/>
    </linearGradient>
    <filter id="glow" x="-50%" y="-50%" width="200%" height="200%">
      <feGaussianBlur stdDeviation="6" result="blur"/>
      <feColorMatrix in="blur" type="matrix" values="0 0 0 0 0.133 0 0 0 0 0.773 0 0 0 0 0.369 0 0 0 0.8 0"/>
      <feMerge>
        <feMergeNode/>
        <feMergeNode in="SourceGraphic"/>
      </feMerge>
    </filter>
    <style>
      .title { font: 700 34px 'Segoe UI', Arial, sans-serif; fill: #F8FAFC; }
      .subtitle { font: 500 16px 'Segoe UI', Arial, sans-serif; fill: #BAE6FD; }
      .nodeTitle { font: 700 18px 'Segoe UI', Arial, sans-serif; fill: #F8FAFC; }
      .nodeSub { font: 500 13px 'Segoe UI', Arial, sans-serif; fill: #CFFAFE; }
      .small { font: 600 12px 'Segoe UI', Arial, sans-serif; fill: #86EFAC; }
      .chip { fill: rgba(2, 6, 23, 0.78); stroke: rgba(56, 189, 248, 0.55); stroke-width: 1; }
      .node { fill: rgba(15, 23, 42, 0.82); stroke: rgba(34, 197, 94, 0.72); stroke-width: 1.4; }
      .grid { stroke: rgba(148, 163, 184, 0.12); stroke-width: 1; }
    </style>
  </defs>

  <rect width="1280" height="520" rx="28" fill="url(#bg)"/>
  <g opacity="0.45">
    <path class="grid" d="M80 0V520"/>
    <path class="grid" d="M200 0V520"/>
    <path class="grid" d="M320 0V520"/>
    <path class="grid" d="M440 0V520"/>
    <path class="grid" d="M560 0V520"/>
    <path class="grid" d="M680 0V520"/>
    <path class="grid" d="M800 0V520"/>
    <path class="grid" d="M920 0V520"/>
    <path class="grid" d="M1040 0V520"/>
    <path class="grid" d="M1160 0V520"/>
    <path class="grid" d="M0 80H1280"/>
    <path class="grid" d="M0 160H1280"/>
    <path class="grid" d="M0 240H1280"/>
    <path class="grid" d="M0 320H1280"/>
    <path class="grid" d="M0 400H1280"/>
    <path class="grid" d="M0 480H1280"/>
  </g>

  <circle cx="1010" cy="100" r="150" fill="#0EA5E9" opacity="0.12"/>
  <circle cx="320" cy="390" r="180" fill="#22C55E" opacity="0.10"/>

  <text x="64" y="70" class="title">AI Native R&amp;D Platform for Automotive Thermal Management</text>
  <text x="66" y="103" class="subtitle">Requirement -> Architecture -> Simulink Model -> MIL/HIL -> Calibration -> Knowledge Loop</text>

  <rect x="60" y="140" width="1160" height="250" rx="24" fill="rgba(2, 6, 23, 0.42)" stroke="rgba(125, 211, 252, 0.30)"/>
  <path d="M138 264H1142" stroke="url(#line)" stroke-width="4" stroke-linecap="round" filter="url(#glow)"/>

  <g filter="url(#glow)">
    <circle cx="140" cy="264" r="10" fill="#22C55E"/>
    <circle cx="310" cy="264" r="10" fill="#38BDF8"/>
    <circle cx="480" cy="264" r="10" fill="#22C55E"/>
    <circle cx="650" cy="264" r="10" fill="#38BDF8"/>
    <circle cx="820" cy="264" r="10" fill="#22C55E"/>
    <circle cx="990" cy="264" r="10" fill="#38BDF8"/>
    <circle cx="1140" cy="264" r="10" fill="#22C55E"/>
  </g>

  <g>
    <rect class="node" x="88" y="180" width="150" height="70" rx="14"/>
    <text x="112" y="211" class="nodeTitle">PRD / SOR</text>
    <text x="112" y="234" class="nodeSub">customer intent</text>

    <rect class="node" x="258" y="280" width="150" height="70" rx="14"/>
    <text x="282" y="311" class="nodeTitle">SWRS</text>
    <text x="282" y="334" class="nodeSub">requirements</text>

    <rect class="node" x="428" y="180" width="150" height="70" rx="14"/>
    <text x="452" y="211" class="nodeTitle">Architecture</text>
    <text x="452" y="234" class="nodeSub">ASW design</text>

    <rect class="node" x="598" y="280" width="150" height="70" rx="14"/>
    <text x="622" y="311" class="nodeTitle">SWDD</text>
    <text x="622" y="334" class="nodeSub">detailed design</text>

    <rect class="node" x="768" y="180" width="150" height="70" rx="14"/>
    <text x="792" y="211" class="nodeTitle">Simulink</text>
    <text x="792" y="234" class="nodeSub">model build</text>

    <rect class="node" x="938" y="280" width="150" height="70" rx="14"/>
    <text x="962" y="311" class="nodeTitle">MIL / HIL</text>
    <text x="962" y="334" class="nodeSub">test loop</text>

    <rect class="node" x="1088" y="180" width="100" height="70" rx="14"/>
    <text x="1110" y="211" class="nodeTitle">SOP</text>
    <text x="1110" y="234" class="nodeSub">deliver</text>
  </g>

  <g>
    <rect class="chip" x="78" y="424" width="210" height="44" rx="22"/>
    <text x="102" y="452" class="small">Smart HVAC Agent</text>
    <rect class="chip" x="312" y="424" width="238" height="44" rx="22"/>
    <text x="336" y="452" class="small">Thermal Comfort Control</text>
    <rect class="chip" x="574" y="424" width="206" height="44" rx="22"/>
    <text x="598" y="452" class="small">LSTM / Offline RL</text>
    <rect class="chip" x="804" y="424" width="214" height="44" rx="22"/>
    <text x="828" y="452" class="small">MCP / Skill / Tool</text>
    <rect class="chip" x="1042" y="424" width="154" height="44" rx="22"/>
    <text x="1066" y="452" class="small">Knowledge Loop</text>
  </g>
</svg>
